<svg width="14" height="24" viewBox="0 0 14 24" fill="none" xmlns="http://www.w3.org/2000/svg">
<path d="M13.9999 9.75C13.9999 10.6094 13.8476 11.4219 13.5429 12.1875C13.2382 12.9531 12.8163 13.6406 12.2773 14.25C11.7382 14.8594 11.1054 15.3516 10.3788 15.7266C9.65228 16.1016 8.85931 16.3477 7.99994 16.4648V24H6.49994V16.4648C5.64838 16.3633 4.85931 16.1211 4.13275 15.7383C3.40619 15.3555 2.76947 14.8594 2.2226 14.25C1.67572 13.6406 1.25385 12.957 0.95697 12.1992C0.660095 11.4414 0.507751 10.625 0.499939 9.75C0.499939 8.84375 0.667908 7.98438 1.00385 7.17188C1.33978 6.35938 1.83197 5.62891 2.48041 4.98047C3.2851 4.17578 4.07806 3.37891 4.85931 2.58984C5.64056 1.80078 6.43744 1.00391 7.24994 0.199219C8.05463 1.00391 8.8476 1.80078 9.62885 2.58984C10.4101 3.37891 11.207 4.17578 12.0195 4.98047C12.6601 5.62109 13.1484 6.34766 13.4843 7.16016C13.8203 7.97266 13.9921 8.83594 13.9999 9.75ZM7.99994 14.9414C8.64838 14.8555 9.24603 14.6602 9.79291 14.3555C10.3398 14.0508 10.8124 13.6641 11.2109 13.1953C11.6093 12.7266 11.9218 12.1992 12.1484 11.6133C12.3749 11.0273 12.4882 10.4062 12.4882 9.75C12.4882 9.05469 12.3593 8.38672 12.1015 7.74609C11.8437 7.10547 11.4648 6.53516 10.9648 6.03516L7.24994 2.32031L3.5351 6.03516C3.04291 6.52734 2.664 7.09375 2.39838 7.73438C2.13275 8.375 1.99994 9.04688 1.99994 9.75C1.99994 10.3984 2.11322 11.0156 2.33978 11.6016C2.56635 12.1875 2.87885 12.7148 3.27728 13.1836C3.67572 13.6523 4.14838 14.0391 4.69525 14.3438C5.24213 14.6484 5.84369 14.8477 6.49994 14.9414V6H7.99994V14.9414Z" fill="#3B5A16"/>
</svg>
