<svg width="20" height="20" viewBox="0 0 20 20" fill="none" xmlns="http://www.w3.org/2000/svg">
<path d="M9.99997 0.00390625C10.9218 0.00390625 11.8086 0.125 12.6601 0.367188C13.5117 0.601562 14.3047 0.9375 15.039 1.375C15.7812 1.80469 16.457 2.32422 17.0664 2.93359C17.6758 3.54297 18.1953 4.21875 18.625 4.96094C19.0625 5.69531 19.3984 6.48828 19.6328 7.33984C19.875 8.19141 19.9961 9.07812 19.9961 10C19.9961 10.9219 19.875 11.8086 19.6328 12.6602C19.3984 13.5117 19.0625 14.3086 18.625 15.0508C18.1953 15.7852 17.6758 16.457 17.0664 17.0664C16.457 17.6758 15.7812 18.1992 15.039 18.6367C14.3047 19.0664 13.5117 19.4023 12.6601 19.6445C11.8086 19.8789 10.9218 19.9961 9.99997 19.9961C9.07809 19.9961 8.19138 19.8789 7.33981 19.6445C6.48825 19.4023 5.69138 19.0664 4.94919 18.6367C4.21481 18.1992 3.54294 17.6758 2.93356 17.0664C2.32419 16.457 1.80075 15.7852 1.36325 15.0508C0.933563 14.3086 0.597626 13.5117 0.355438 12.6602C0.121063 11.8086 0.00387573 10.9219 0.00387573 10C0.00387573 9.07812 0.121063 8.19141 0.355438 7.33984C0.597626 6.48828 0.933563 5.69531 1.36325 4.96094C1.80075 4.21875 2.32419 3.54297 2.93356 2.93359C3.54294 2.32422 4.21481 1.80469 4.94919 1.375C5.69138 0.9375 6.48825 0.601562 7.33981 0.367188C8.19138 0.125 9.07809 0.00390625 9.99997 0.00390625Z" fill="#AE7051"/>
</svg>
