<svg width="20" height="20" viewBox="0 0 20 20" fill="none" xmlns="http://www.w3.org/2000/svg">
<g clip-path="url(#clip0_301_5667)">
<path fill-rule="evenodd" clip-rule="evenodd" d="M16.8787 0C16.4688 0 16.063 0.0807343 15.6843 0.237594C15.3056 0.394453 14.9615 0.624366 14.6716 0.914204L2.75693 12.8289C2.68002 12.9058 2.62451 13.0015 2.59589 13.1064L1.27204 17.9606C1.21302 18.1769 1.27448 18.4083 1.43307 18.5669C1.59167 18.7255 1.82308 18.787 2.03946 18.728L6.8936 17.4041C6.99854 17.3755 7.09419 17.32 7.1711 17.2431L19.0858 5.32837C19.3757 5.03854 19.6056 4.69445 19.7624 4.31575C19.9193 3.93706 20 3.53118 20 3.12129C20 2.7114 19.9193 2.30552 19.7624 1.92682C19.6056 1.54813 19.3757 1.20404 19.0858 0.914204C18.796 0.624366 18.4519 0.394453 18.0732 0.237594C17.6945 0.0807343 17.2886 0 16.8787 0ZM16.1626 1.39244C16.3897 1.2984 16.633 1.25 16.8787 1.25C17.1245 1.25 17.3678 1.2984 17.5948 1.39244C17.8219 1.48648 18.0282 1.62432 18.2019 1.79809C18.3757 1.97185 18.5135 2.17814 18.6076 2.40518C18.7016 2.63221 18.75 2.87555 18.75 3.12129C18.75 3.36703 18.7016 3.61037 18.6076 3.8374C18.5135 4.06443 18.3757 4.27072 18.2019 4.44449L7.11432 15.5321L4.46792 12.8857L15.5555 1.79809C15.7293 1.62432 15.9356 1.48648 16.1626 1.39244ZM3.68354 13.8691L2.76578 17.2342L6.13093 16.3165L3.68354 13.8691Z" fill="white"/>
</g>
<defs>
<clipPath id="clip0_301_5667">
<rect width="20" height="20" fill="white"/>
</clipPath>
</defs>
</svg>
