<svg width="10" height="16" viewBox="0 0 10 16" fill="none" xmlns="http://www.w3.org/2000/svg">
<path d="M0.46967 14.4697C0.176777 14.7626 0.176777 15.2374 0.46967 15.5303C0.762563 15.8232 1.23744 15.8232 1.53033 15.5303L0.46967 14.4697ZM8 8L8.53033 8.53033L9.06066 8L8.53033 7.46967L8 8ZM1.53033 0.46967C1.23744 0.176777 0.762563 0.176777 0.46967 0.46967C0.176777 0.762563 0.176777 1.23744 0.46967 1.53033L1.53033 0.46967ZM1.53033 15.5303L8.53033 8.53033L7.46967 7.46967L0.46967 14.4697L1.53033 15.5303ZM8.53033 7.46967L1.53033 0.46967L0.46967 1.53033L7.46967 8.53033L8.53033 7.46967Z" fill="white"/>
</svg>
