<svg width="40" height="40" viewBox="0 0 40 40" fill="none" xmlns="http://www.w3.org/2000/svg">
<path d="M7.5 11.25C7.5 10.5596 8.05964 10 8.75 10H31.25C31.9404 10 32.5 10.5596 32.5 11.25C32.5 11.9404 31.9404 12.5 31.25 12.5H8.75C8.05964 12.5 7.5 11.9404 7.5 11.25Z" fill="black"/>
<path d="M7.5 21.25C7.5 20.5596 8.05964 20 8.75 20H31.25C31.9404 20 32.5 20.5596 32.5 21.25C32.5 21.9404 31.9404 22.5 31.25 22.5H8.75C8.05964 22.5 7.5 21.9404 7.5 21.25Z" fill="black"/>
<path d="M8.75 30C8.05964 30 7.5 30.5596 7.5 31.25C7.5 31.9404 8.05964 32.5 8.75 32.5H31.25C31.9404 32.5 32.5 31.9404 32.5 31.25C32.5 30.5596 31.9404 30 31.25 30H8.75Z" fill="black"/>
</svg>
