<svg width="40" height="40" viewBox="0 0 40 40" fill="none" xmlns="http://www.w3.org/2000/svg">
<path d="M12.1319 10.3661C11.6438 9.87796 10.8523 9.87796 10.3642 10.3661C9.87601 10.8543 9.87601 11.6457 10.3642 12.1339L18.2308 20.0005L10.3647 27.8665C9.87657 28.3546 9.87657 29.1461 10.3647 29.6343C10.8529 30.1224 11.6443 30.1224 12.1325 29.6343L19.9985 21.7682L27.8642 29.6339C28.3523 30.122 29.1438 30.122 29.6319 29.6339C30.1201 29.1457 30.1201 28.3543 29.6319 27.8661L21.7663 20.0005L29.6325 12.1343C30.1206 11.6461 30.1207 10.8546 29.6325 10.3665C29.1443 9.87834 28.3529 9.87834 27.8647 10.3665L19.9985 18.2327L12.1319 10.3661Z" fill="white"/>
</svg>
