<svg width="31" height="30" viewBox="0 0 31 30" fill="none" xmlns="http://www.w3.org/2000/svg">
<path d="M16.7968 4.09041C15.9425 3.23614 14.5575 3.23614 13.7032 4.09041L9.06398 8.72964C5.64754 12.1461 5.64754 17.6853 9.06398 21.1016C10.5334 22.5711 12.3955 23.4085 14.3125 23.6139V26.562C14.3125 27.0798 14.7322 27.4995 15.25 27.4995C15.7677 27.4995 16.1875 27.0798 16.1875 26.562V23.6139C18.1045 23.4085 19.9666 22.5711 21.436 21.1016C24.8525 17.6853 24.8525 12.1461 21.436 8.72964L16.7968 4.09041ZM16.1875 21.7251V14.687C16.1875 14.1693 15.7677 13.7495 15.25 13.7495C14.7322 13.7495 14.3125 14.1693 14.3125 14.687V21.7251C12.8776 21.5288 11.4929 20.8789 10.3898 19.7759C7.7056 17.0916 7.7056 12.7396 10.3898 10.0555L15.029 5.41624C15.1511 5.2942 15.349 5.2942 15.471 5.41624L20.1102 10.0555C22.7943 12.7396 22.7943 17.0916 20.1102 19.7759C19.0071 20.8789 17.6223 21.5288 16.1875 21.7251Z" fill="#3B5A16"/>
</svg>
