<svg width="31" height="30" viewBox="0 0 31 30" fill="none" xmlns="http://www.w3.org/2000/svg">
<path d="M10.2444 10.5C11.0444 9.3 14.2444 6.33333 15.7444 5L16.7444 6L18.7444 8L20.7444 10C21.2444 10.6667 22.3444 12.3 22.7444 13.5C23.2444 15 22.2444 18.5 21.7444 19C21.2444 19.5 20.2444 21 19.7444 21.5C19.2444 22 17.7444 22.5 17.2444 22.5H14.7444C13.7444 22.5 13.2445 22 12.2445 21.5C11.2445 21 9.74445 19 8.74445 17.5C7.74445 16 8.74444 14 8.74444 13.5C8.74444 13 9.24444 12 10.2444 10.5Z" fill="#ACAE46"/>
<path d="M17.2968 4.09041C16.4425 3.23614 15.0575 3.23614 14.2032 4.09041L9.56398 8.72964C6.14754 12.1461 6.14754 17.6853 9.56398 21.1016C11.0334 22.5711 12.8955 23.4085 14.8125 23.6139V26.562C14.8125 27.0798 15.2322 27.4995 15.75 27.4995C16.2677 27.4995 16.6875 27.0798 16.6875 26.562V23.6139C18.6045 23.4085 20.4666 22.5711 21.936 21.1016C25.3525 17.6853 25.3525 12.1461 21.936 8.72964L17.2968 4.09041ZM16.6875 21.7251V14.687C16.6875 14.1693 16.2677 13.7495 15.75 13.7495C15.2322 13.7495 14.8125 14.1693 14.8125 14.687V21.7251C13.3776 21.5288 11.9929 20.8789 10.8898 19.7759C8.2056 17.0916 8.2056 12.7396 10.8898 10.0555L15.529 5.41624C15.6511 5.2942 15.849 5.2942 15.971 5.41624L20.6102 10.0555C23.2943 12.7396 23.2943 17.0916 20.6102 19.7759C19.5071 20.8789 18.1223 21.5288 16.6875 21.7251Z" fill="#3B5A16"/>
</svg>
