<svg width="16" height="29" viewBox="0 0 16 29" fill="none" xmlns="http://www.w3.org/2000/svg">
<path d="M14.22 13.5894C14.22 16.2352 13.4247 18.5912 12.1874 20.2622C10.95 21.9335 9.32053 22.8677 7.61 22.8677C5.89947 22.8677 4.27 21.9335 3.03261 20.2622C1.79535 18.5912 1 16.2352 1 13.5894C1 10.9747 2.05463 7.74731 3.51508 5.15716C4.24124 3.86931 5.04056 2.78824 5.8101 2.04383C6.614 1.26618 7.23417 1 7.61 1C7.98583 1 8.606 1.26618 9.4099 2.04383C10.1794 2.78824 10.9788 3.86931 11.7049 5.15716C13.1654 7.74731 14.22 10.9747 14.22 13.5894Z" stroke="white" stroke-width="2" stroke-linecap="round"/>
<line x1="7.5332" y1="16.7012" x2="7.5332" y2="26.3651" stroke="white" stroke-width="2" stroke-linecap="round"/>
<path d="M3.7002 14.1328L7.2652 15.8774L10.8302 14.1328" stroke="white" stroke-width="2" stroke-linecap="round"/>
<path d="M3.7002 16.9004L7.2652 18.645L10.8302 16.9004" stroke="white" stroke-width="2" stroke-linecap="round"/>
</svg>
