<svg width="72" height="89" viewBox="0 0 72 89" fill="none" xmlns="http://www.w3.org/2000/svg">
<path d="M45.8138 40.4086C45.8138 48.5596 43.3656 55.8798 39.4805 61.1272C35.5951 66.3749 30.3475 69.4714 24.6852 69.4714C19.0229 69.4714 13.7753 66.3749 9.88993 61.1272C6.00479 55.8798 3.55664 48.5596 3.55664 40.4086C3.55664 32.3041 6.80148 22.457 11.2253 14.6113C13.4311 10.6992 15.8892 7.35872 18.3086 5.01829C20.7796 2.62801 22.981 1.5 24.6852 1.5C26.3895 1.5 28.5908 2.62801 31.0618 5.01829C33.4812 7.35872 35.9393 10.6992 38.1451 14.6113C42.5689 22.457 45.8138 32.3041 45.8138 40.4086Z" fill="#3B5A16" stroke="#332A1A" stroke-width="3" stroke-linecap="round"/>
<line x1="26.1855" y1="30.8145" x2="26.1855" y2="82.843" stroke="#332A1A" stroke-width="3" stroke-linecap="round"/>
<path d="M12.8574 36.7715L24.9431 42.6858L37.0289 36.7715" stroke="#332A1A" stroke-width="3" stroke-linecap="round"/>
<path d="M12.8574 45L24.9431 50.9143L37.0289 45" stroke="#332A1A" stroke-width="3" stroke-linecap="round"/>
<path d="M12.8574 53.2285L24.9431 59.1428L37.0289 53.2285" stroke="#332A1A" stroke-width="3" stroke-linecap="round"/>
<path d="M66.3849 55.6786C66.3849 60.8963 64.8171 65.5609 62.3552 68.886C59.8931 72.2114 56.6117 74.119 53.1212 74.119C49.6307 74.119 46.3493 72.2114 43.8872 68.886C41.4253 65.5609 39.8574 60.8963 39.8574 55.6786C39.8574 50.5075 41.936 44.1714 44.7935 39.1035C46.2162 36.5803 47.7912 34.4454 49.3233 32.9633C50.907 31.4313 52.2168 30.8145 53.1212 30.8145C54.0255 30.8145 55.3354 31.4313 56.919 32.9633C58.4511 34.4454 60.0262 36.5803 61.4488 39.1035C64.3064 44.1714 66.3849 50.5075 66.3849 55.6786Z" fill="#ACAE46" stroke="#332A1A" stroke-width="3" stroke-linecap="round"/>
<line x1="54.6211" y1="49.9404" x2="54.6211" y2="82.8432" stroke="#332A1A" stroke-width="3" stroke-linecap="round"/>
<path d="M45.4043 58.6748L53.2895 62.5335L61.1747 58.6748" stroke="#332A1A" stroke-width="3" stroke-linecap="round"/>
<path d="M45.4043 64.043L53.2895 67.9017L61.1747 64.043" stroke="#332A1A" stroke-width="3" stroke-linecap="round"/>
<line x1="1.5" y1="82.8428" x2="70.5" y2="82.8428" stroke="#332A1A" stroke-width="3" stroke-linecap="round"/>
<line x1="12.2988" y1="86.957" x2="59.6988" y2="86.957" stroke="#332A1A" stroke-width="3" stroke-linecap="round"/>
</svg>
