<svg width="23" height="43" viewBox="0 0 23 43" fill="none" xmlns="http://www.w3.org/2000/svg">
<path d="M22 20.6013C22 24.7123 20.7688 28.3945 18.8271 31.0253C16.8852 33.6565 14.2833 35.1829 11.5 35.1829C8.71666 35.1829 6.11479 33.6565 4.17286 31.0253C2.23117 28.3945 1 24.7123 1 20.6013C1 16.5213 2.63196 11.5406 4.86728 7.56353C5.98093 5.58217 7.21721 3.89926 8.42578 2.72644C9.66895 1.52003 10.7297 1 11.5 1C12.2703 1 13.3311 1.52003 14.5742 2.72644C15.7828 3.89926 17.0191 5.58217 18.1327 7.56353C20.368 11.5406 22 16.5213 22 20.6013Z" fill="#3B5A16" stroke="black" stroke-width="2" stroke-linecap="round"/>
<line x1="12.3828" y1="26.3184" x2="12.3828" y2="42.0006" stroke="black" stroke-width="2" stroke-linecap="round"/>
<path d="M5.48828 22.9414L11.6303 25.9566L17.7724 22.9414" stroke="black" stroke-width="2" stroke-linecap="round"/>
<path d="M5.48828 27.1367L11.6303 30.152L17.7724 27.1367" stroke="black" stroke-width="2" stroke-linecap="round"/>
</svg>
