<svg width="131" height="138" viewBox="0 0 131 138" fill="none" xmlns="http://www.w3.org/2000/svg">
<path d="M97.9572 51.6332C97.9572 62.1286 94.8055 71.5712 89.7828 78.3549C84.76 85.1389 77.941 89.1857 70.5429 89.1857C63.1448 89.1857 56.3258 85.1389 51.3029 78.3549C46.2803 71.5712 43.1286 62.1286 43.1286 51.6332C43.1286 41.1844 47.3056 28.5311 52.9812 18.4653C55.8128 13.4432 58.9768 9.13921 62.1053 6.11279C65.2855 3.0365 68.1993 1.5 70.5429 1.5C72.8864 1.5 75.8003 3.0365 78.9804 6.11279C82.109 9.13921 85.2729 13.4432 88.1046 18.4653C93.7802 28.5311 97.9572 41.1844 97.9572 51.6332Z" fill="#3B5A16" stroke="#332A1A" stroke-width="3" stroke-linecap="round"/>
<line x1="72.0428" y1="38.9573" x2="72.0428" y2="106.272" stroke="#332A1A" stroke-width="3" stroke-linecap="round"/>
<path d="M55.4283 46.9857L70.8712 54.5428L86.3141 46.9857" stroke="#332A1A" stroke-width="3" stroke-linecap="round"/>
<path d="M55.4283 57.5L70.8712 65.0571L86.3141 57.5" stroke="#332A1A" stroke-width="3" stroke-linecap="round"/>
<path d="M55.4283 68.0142L70.8712 75.5713L86.3141 68.0142" stroke="#332A1A" stroke-width="3" stroke-linecap="round"/>
<path d="M124.243 71.1448C124.243 77.8921 122.216 83.9414 119.012 88.2689C115.808 92.5966 111.501 95.1242 106.878 95.1242C102.255 95.1242 97.9483 92.5966 94.7441 88.2689C91.5401 83.9414 89.5132 77.8921 89.5132 71.1448C89.5132 64.4441 92.1999 56.2773 95.8742 49.7608C97.7052 46.5134 99.7407 43.7499 101.735 41.8202C103.782 39.8407 105.557 38.9573 106.878 38.9573C108.199 38.9573 109.974 39.8407 112.02 41.8202C114.015 43.7499 116.051 46.5134 117.882 49.7608C121.556 56.2773 124.243 64.4441 124.243 71.1448Z" fill="#ACAE46" stroke="#332A1A" stroke-width="3" stroke-linecap="round"/>
<line x1="108.378" y1="63.3959" x2="108.378" y2="106.272" stroke="#332A1A" stroke-width="3" stroke-linecap="round"/>
<path d="M97.0168 74.9734L107.092 79.9039L117.168 74.9734" stroke="#332A1A" stroke-width="3" stroke-linecap="round"/>
<path d="M97.0168 81.8327L107.092 86.7633L117.168 81.8327" stroke="#332A1A" stroke-width="3" stroke-linecap="round"/>
<line x1="40.5" y1="106.272" x2="129.5" y2="106.272" stroke="#332A1A" stroke-width="3" stroke-linecap="round"/>
<line x1="54.2998" y1="111.529" x2="115.7" y2="111.529" stroke="#332A1A" stroke-width="3" stroke-linecap="round"/>
<path d="M32.4194 73L60.4955 121.629H4.34338L32.4194 73Z" fill="#E3C042" stroke="black" stroke-width="3" stroke-linejoin="round"/>
<circle cx="32.4194" cy="112.344" r="1.57376" fill="black"/>
<path d="M30.9018 92.1987C30.8711 91.3394 31.5595 90.626 32.4194 90.626C33.2793 90.626 33.9677 91.3394 33.937 92.1987L33.3974 107.308C33.3786 107.835 32.9463 108.252 32.4194 108.252C31.8925 108.252 31.4602 107.835 31.4414 107.308L30.9018 92.1987Z" fill="black"/>
</svg>
